<svg width="20" height="16" viewBox="0 0 20 16" fill="none" xmlns="http://www.w3.org/2000/svg">
<path d="M0.417454 1.71703C3.16237 4.04168 7.97886 8.13145 9.39448 9.40664C9.58452 9.57875 9.78835 9.66625 9.99995 9.66625C10.2111 9.66625 10.4146 9.57957 10.6042 9.40828C12.021 8.13184 16.8375 4.04168 19.5825 1.71703C19.7534 1.57258 19.7794 1.31867 19.6411 1.14207C19.3212 0.733984 18.8444 0.5 18.3333 0.5H1.66663C1.15558 0.5 0.678665 0.733985 0.35886 1.14211C0.220501 1.31867 0.246556 1.57258 0.417454 1.71703Z" fill="#CD06FF"/>
<path d="M19.7583 2.97683C19.6106 2.90808 19.4369 2.93207 19.314 3.03707C16.2699 5.61761 12.3848 8.92535 11.1625 10.0268C10.4764 10.6461 9.5243 10.6461 8.83664 10.026C7.53375 8.85207 3.17094 5.14316 0.686016 3.03703C0.562305 2.93203 0.388164 2.90887 0.24168 2.97679C0.0944141 3.04519 0 3.1925 0 3.35484V13.8334C0 14.7526 0.747461 15.5 1.66668 15.5H18.3334C19.2525 15.5 20 14.7526 20 13.8334V3.35484C20 3.1925 19.9056 3.0448 19.7583 2.97683Z" fill="#CD06FF"/>
</svg>
