<svg width="32" height="24" viewBox="0 0 32 24" fill="none" xmlns="http://www.w3.org/2000/svg">
<path d="M0.668024 1.94725C5.0599 5.66669 12.7663 12.2103 15.0313 14.2506C15.3353 14.526 15.6615 14.666 16 14.666C16.3379 14.666 16.6635 14.5273 16.9668 14.2533C19.2338 12.2109 26.9401 5.66669 31.3321 1.94725C31.6055 1.71612 31.6472 1.30987 31.4258 1.02731C30.9141 0.374375 30.1511 0 29.3333 0H2.66671C1.84902 0 1.08596 0.374375 0.574274 1.02738C0.352899 1.30988 0.394587 1.71612 0.668024 1.94725Z" fill="#CD06FF"/>
<path d="M31.6133 3.96303C31.377 3.85303 31.099 3.89141 30.9024 4.05941C26.0319 8.18828 19.8158 13.4807 17.86 15.243C16.7623 16.2338 15.2389 16.2338 14.1386 15.2417C12.054 13.3634 5.0735 7.42916 1.09763 4.05934C0.899688 3.89134 0.621063 3.85428 0.386687 3.96297C0.151062 4.07241 0 4.30809 0 4.56784V21.3335C0 22.8042 1.19594 24.0002 2.66669 24.0002H29.3334C30.8041 24.0002 32 22.8042 32 21.3335V4.56784C32 4.30809 31.8489 4.07178 31.6133 3.96303Z" fill="#CD06FF"/>
</svg>
