<svg width="26" height="20" viewBox="0 0 26 20" fill="none" xmlns="http://www.w3.org/2000/svg">
<path d="M0.542739 1.83214C4.11114 4.85418 10.3726 10.1709 12.2129 11.8286C12.4599 12.0524 12.7249 12.1661 13 12.1661C13.2745 12.1661 13.539 12.0534 13.7855 11.8308C15.6274 10.1714 21.8888 4.85418 25.4573 1.83214C25.6795 1.64435 25.7133 1.31427 25.5335 1.08469C25.1177 0.55418 24.4977 0.25 23.8333 0.25H2.16667C1.5023 0.25 0.882313 0.55418 0.466567 1.08474C0.2867 1.31427 0.320571 1.64435 0.542739 1.83214Z" fill="#CD06FF"/>
<path d="M25.6858 3.46993C25.4938 3.38056 25.2679 3.41174 25.1082 3.54824C21.1509 6.90295 16.1003 11.203 14.5113 12.6349C13.6194 13.44 12.3816 13.44 11.4876 12.6338C9.79387 11.1077 4.12222 6.28616 0.89182 3.54819C0.730996 3.41169 0.504613 3.38157 0.314184 3.46988C0.122738 3.5588 0 3.7503 0 3.96134V17.5834C0 18.7784 0.971699 19.7501 2.16668 19.7501H23.8334C25.0283 19.7501 26 18.7784 26 17.5834V3.96134C26 3.7503 25.8773 3.55829 25.6858 3.46993Z" fill="#CD06FF"/>
</svg>
