<svg width="20" height="20" viewBox="0 0 20 20" fill="none" xmlns="http://www.w3.org/2000/svg">
<path d="M10 0C6.48574 0 3.55469 2.83086 3.55469 6.44531C3.55469 7.82039 3.96789 9.04656 4.7609 10.1955L9.50676 17.601C9.73699 17.961 10.2635 17.9603 10.4932 17.601L15.2597 10.1704C16.0356 9.07344 16.4453 7.78543 16.4453 6.44531C16.4453 2.89137 13.5539 0 10 0ZM10 9.375C8.38465 9.375 7.07031 8.06066 7.07031 6.44531C7.07031 4.82996 8.38465 3.51562 10 3.51562C11.6154 3.51562 12.9297 4.82996 12.9297 6.44531C12.9297 8.06066 11.6154 9.375 10 9.375Z" fill="#CD06FF"/>
<path d="M14.5806 13.4646L11.6302 18.0774C10.8665 19.2681 9.12926 19.2642 8.36922 18.0785L5.41398 13.4658C2.81383 14.067 1.21094 15.1683 1.21094 16.4843C1.21094 18.768 5.73938 20 10 20C14.2606 20 18.7891 18.768 18.7891 16.4843C18.7891 15.1673 17.1839 14.0655 14.5806 13.4646Z" fill="#CD06FF"/>
</svg>
