<svg width="66" height="42" viewBox="0 0 66 42" fill="none" xmlns="http://www.w3.org/2000/svg">
<path d="M20.7287 25.6802V21.1312H31.1005V30.453C29.115 31.8152 27.3568 32.7449 25.8257 33.242C24.3045 33.7292 22.4969 33.9729 20.4028 33.9729C17.8246 33.9729 15.7206 33.5304 14.0908 32.6454C12.4708 31.7605 11.2114 30.443 10.3125 28.693C9.42351 26.943 8.979 24.9345 8.979 22.6675C8.979 20.2811 9.46796 18.2079 10.4459 16.448C11.4238 14.6781 12.8561 13.3358 14.7427 12.421C16.2145 11.715 18.1951 11.3621 20.6843 11.3621C23.0846 11.3621 24.8774 11.5808 26.0628 12.0183C27.258 12.4558 28.2458 13.1369 29.0261 14.0616C29.8164 14.9764 30.409 16.1398 30.8042 17.5517L24.3292 18.715C24.0625 17.8898 23.6081 17.2584 22.9661 16.8209C22.3339 16.3834 21.5239 16.1646 20.5361 16.1646C19.0643 16.1646 17.8888 16.6817 17.0097 17.7158C16.1405 18.7399 15.7058 20.3656 15.7058 22.5929C15.7058 24.9594 16.1454 26.6497 17.0245 27.6639C17.9135 28.6781 19.1483 29.1852 20.7287 29.1852C21.4794 29.1852 22.1956 29.0758 22.8772 28.8571C23.5587 28.6383 24.3391 28.2655 25.2182 27.7385V25.6802H20.7287Z" fill="white"/>
<path d="M34.2417 22.6824C34.2417 19.1128 35.2294 16.3337 37.205 14.345C39.1806 12.3564 41.9316 11.3621 45.458 11.3621C49.0733 11.3621 51.8588 12.3415 53.8147 14.3003C55.7705 16.2491 56.7484 18.9835 56.7484 22.5034C56.7484 25.0588 56.3187 27.1568 55.4593 28.7974C54.6098 30.4281 53.3751 31.7008 51.7551 32.6156C50.145 33.5204 48.1349 33.9729 45.7247 33.9729C43.275 33.9729 41.2451 33.5801 39.635 32.7946C38.0348 32.0091 36.7358 30.7662 35.7381 29.0659C34.7405 27.3656 34.2417 25.2378 34.2417 22.6824ZM40.9537 22.7122C40.9537 24.9196 41.3587 26.5055 42.1686 27.47C42.9885 28.4345 44.0998 28.9167 45.5024 28.9167C46.9446 28.9167 48.0608 28.4444 48.851 27.4998C49.6413 26.5552 50.0364 24.8599 50.0364 22.4139C50.0364 20.3557 49.6215 18.8542 48.7918 17.9096C47.9719 16.9551 46.8557 16.4778 45.4432 16.4778C44.0899 16.4778 43.0033 16.9601 42.1835 17.9246C41.3636 18.889 40.9537 20.4849 40.9537 22.7122Z" fill="white"/>
<path d="M0 17.5637H0.75862V42.0001H0V17.5637Z" fill="#CD06FF"/>
<path d="M0 42.0001V41.2364H38.6896V42.0001H0Z" fill="#CD06FF"/>
<path d="M66 24.4363H65.2414V-8.39233e-05H66V24.4363Z" fill="#CD06FF"/>
<path d="M66 -8.39233e-05V0.763552H27.3104V-8.39233e-05H66Z" fill="#CD06FF"/>
</svg>
