<svg width="87" height="55" viewBox="0 0 87 55" fill="none" xmlns="http://www.w3.org/2000/svg">
<path d="M27.3242 33.6289V27.6719H40.9961V39.8789C38.3789 41.6628 36.0612 42.8802 34.043 43.5312C32.0378 44.1693 29.6549 44.4883 26.8945 44.4883C23.4961 44.4883 20.7227 43.9089 18.5742 42.75C16.4388 41.5911 14.7786 39.8659 13.5938 37.5742C12.4219 35.2826 11.8359 32.6523 11.8359 29.6836C11.8359 26.5586 12.4805 23.8438 13.7695 21.5391C15.0586 19.2214 16.9466 17.4635 19.4336 16.2656C21.3737 15.3411 23.9844 14.8789 27.2656 14.8789C30.4297 14.8789 32.793 15.1654 34.3555 15.7383C35.931 16.3112 37.2331 17.2031 38.2617 18.4141C39.3034 19.612 40.0846 21.1354 40.6055 22.9844L32.0703 24.5078C31.7188 23.4271 31.1198 22.6003 30.2734 22.0273C29.4401 21.4544 28.3724 21.168 27.0703 21.168C25.1302 21.168 23.5807 21.8451 22.4219 23.1992C21.276 24.5404 20.7031 26.6693 20.7031 29.5859C20.7031 32.6849 21.2826 34.8984 22.4414 36.2266C23.6133 37.5547 25.2409 38.2188 27.3242 38.2188C28.3138 38.2188 29.2578 38.0755 30.1562 37.7891C31.0547 37.5026 32.0833 37.0143 33.2422 36.3242V33.6289H27.3242Z" fill="white"/>
<path d="M45.1367 29.7031C45.1367 25.0286 46.4388 21.3893 49.043 18.7852C51.6471 16.181 55.2734 14.8789 59.9219 14.8789C64.6875 14.8789 68.3594 16.1615 70.9375 18.7266C73.5156 21.2786 74.8047 24.8594 74.8047 29.4688C74.8047 32.8151 74.2383 35.5625 73.1055 37.7109C71.9857 39.8464 70.3581 41.513 68.2227 42.7109C66.1003 43.8958 63.4505 44.4883 60.2734 44.4883C57.0443 44.4883 54.3685 43.974 52.2461 42.9453C50.1367 41.9167 48.4245 40.2891 47.1094 38.0625C45.7943 35.8359 45.1367 33.0495 45.1367 29.7031ZM53.9844 29.7422C53.9844 32.6328 54.5182 34.7096 55.5859 35.9727C56.6667 37.2357 58.1315 37.8672 59.9805 37.8672C61.8815 37.8672 63.3529 37.2487 64.3945 36.0117C65.4362 34.7747 65.957 32.5547 65.957 29.3516C65.957 26.6562 65.4102 24.6901 64.3164 23.4531C63.2357 22.2031 61.7643 21.5781 59.9023 21.5781C58.1185 21.5781 56.6862 22.2096 55.6055 23.4727C54.5247 24.7357 53.9844 26.8255 53.9844 29.7422Z" fill="white"/>
<path d="M0 23H1V55H0V23Z" fill="#CD06FF"/>
<path d="M0 55V54H51V55H0Z" fill="#CD06FF"/>
<path d="M87 32H86V0H87V32Z" fill="#CD06FF"/>
<path d="M87 0V1H36V0H87Z" fill="#CD06FF"/>
</svg>
