<svg width="30" height="30" viewBox="0 0 30 30" fill="none" xmlns="http://www.w3.org/2000/svg">
<path d="M15.0001 0C6.71668 0 -0.000244141 6.71615 -0.000244141 15.0004C-0.000244141 21.1427 3.69322 26.4188 8.9786 28.7388C8.93629 27.6915 8.97052 26.4335 9.23976 25.2954C9.52822 24.0769 11.1698 17.1215 11.1698 17.1215C11.1698 17.1215 10.6905 16.1638 10.6905 14.7485C10.6905 12.5258 11.979 10.8646 13.5828 10.8646C14.9471 10.8646 15.6063 11.8892 15.6063 13.1165C15.6063 14.4881 14.7321 16.5381 14.2821 18.4396C13.9059 20.0315 15.0801 21.3288 16.6498 21.3288C19.4917 21.3288 21.4055 17.6788 21.4055 13.3535C21.4055 10.0669 19.1917 7.60615 15.1644 7.60615C10.614 7.60615 7.77937 10.9992 7.77937 14.7892C7.77937 16.0969 8.16476 17.0181 8.7686 17.7308C9.04591 18.0588 9.08437 18.1908 8.98399 18.5677C8.91206 18.8435 8.74668 19.5077 8.6786 19.7712C8.57899 20.1512 8.27129 20.2865 7.92745 20.1465C5.83168 19.2908 4.85553 16.9958 4.85553 14.4158C4.85553 10.1542 8.44899 5.04538 15.5759 5.04538C21.3032 5.04538 25.0725 9.18961 25.0725 13.6392C25.0725 19.5227 21.8009 23.9188 16.9786 23.9188C15.3598 23.9188 13.8363 23.0431 13.3144 22.0492C13.3144 22.0492 12.4436 25.5046 12.2594 26.1731C11.9413 27.3296 11.3186 28.4858 10.7494 29.3862C12.1295 29.7943 13.5613 30.0015 15.0005 30.0015C23.2836 30.0008 29.9998 23.2842 29.9998 15.0004C29.9998 6.71615 23.2836 0 15.0001 0Z" fill="white"/>
</svg>
