<svg width="40" height="40" viewBox="0 0 40 40" fill="none" xmlns="http://www.w3.org/2000/svg">
<path d="M20.0004 0C8.95578 0 -0.00012207 8.95487 -0.00012207 20.0005C-0.00012207 28.1903 4.92449 35.2251 11.9717 38.3185C11.9153 36.9221 11.9609 35.2446 12.3199 33.7272C12.7045 32.1026 14.8932 22.8287 14.8932 22.8287C14.8932 22.8287 14.2542 21.5518 14.2542 19.6646C14.2542 16.701 15.9722 14.4862 18.1106 14.4862C19.9296 14.4862 20.8086 15.8523 20.8086 17.4887C20.8086 19.3174 19.643 22.0508 19.043 24.5862C18.5414 26.7087 20.1071 28.4385 22.1999 28.4385C25.9891 28.4385 28.5409 23.5718 28.5409 17.8046C28.5409 13.4226 25.5891 10.1415 20.2194 10.1415C14.1522 10.1415 10.3727 14.6656 10.3727 19.719C10.3727 21.4626 10.8865 22.6908 11.6917 23.641C12.0614 24.0785 12.1127 24.2544 11.9789 24.7569C11.883 25.1246 11.6624 26.0103 11.5717 26.3615C11.4389 26.8682 11.0286 27.0487 10.5701 26.8621C7.77578 25.721 6.47424 22.661 6.47424 19.221C6.47424 13.539 11.2655 6.72718 20.7681 6.72718C28.4045 6.72718 33.4301 12.2528 33.4301 18.1856C33.4301 26.0303 29.0681 31.8918 22.6383 31.8918C20.4799 31.8918 18.4486 30.7241 17.7527 29.399C17.7527 29.399 16.5917 34.0062 16.346 34.8974C15.9219 36.4395 15.0917 37.981 14.3327 39.1815C16.1729 39.7257 18.0819 40.002 20.0009 40.0021C31.045 40.001 39.9999 31.0456 39.9999 20.0005C39.9999 8.95487 31.045 0 20.0004 0Z" fill="white"/>
</svg>
