<svg width="40" height="40" viewBox="0 0 40 40" fill="none" xmlns="http://www.w3.org/2000/svg">
<g clip-path="url(#clip0_1355_22)">
<path fill-rule="evenodd" clip-rule="evenodd" d="M35.7953 7.73535C38.5267 11.2396 40.0068 15.557 39.9999 20C39.9999 31.0441 31.044 39.9999 20.0005 39.9999C12.2297 39.9999 5.49277 35.5661 2.18201 29.0917H10.8989C15.0528 29.0917 17.9543 26.8528 17.9543 23.2738C17.9543 15.6887 9.20405 18.7789 9.20405 16.0871C9.20405 14.7902 10.2446 14.3184 12.1487 14.3184H18.2153C19.8969 14.3184 21.8748 14.62 21.8748 16.4548V22.4994C21.8748 26.8764 25.2928 29.0912 28.8353 29.0912C32.4384 29.0912 35.7948 26.8764 35.7948 22.4994V7.73535H35.7953Z" fill="white"/>
<path fill-rule="evenodd" clip-rule="evenodd" d="M20.0004 1.94593e-05C24.0138 -0.00559095 27.9352 1.20209 31.2501 3.46463V22.641C31.2501 23.9703 30.1629 25.0579 28.8358 25.0579C27.507 25.0579 26.4209 23.9703 26.4209 22.641V16.8949C26.4209 12.3077 24.0994 10.3995 21.0758 10.3995H11.2353C7.6727 10.3995 4.71732 12.6672 4.71732 16.2631C4.71732 18.1031 5.50552 20.7995 9.23321 21.4682C12.2696 22.0149 13.4681 21.8559 13.4681 23.4805C13.4681 25.0579 11.7009 25.0579 9.36808 25.0579H0.646551C0.21574 23.4065 -0.00158608 21.7067 -0.000114649 20C-0.000114649 8.95847 8.9568 1.94593e-05 20.0004 1.94593e-05Z" fill="white"/>
</g>
<defs>
<clipPath id="clip0_1355_22">
<rect width="40" height="40" fill="white"/>
</clipPath>
</defs>
</svg>
