<svg width="30" height="30" viewBox="0 0 30 30" fill="none" xmlns="http://www.w3.org/2000/svg">
<path fill-rule="evenodd" clip-rule="evenodd" d="M26.8465 5.80151C28.895 8.42967 30.0051 11.6678 29.9999 15C29.9999 23.283 23.283 30 15.0003 30C9.17224 30 4.11955 26.6746 1.63647 21.8188H8.17416C11.2895 21.8188 13.4657 20.1396 13.4657 17.4554C13.4657 11.7665 6.90301 14.0842 6.90301 12.0654C6.90301 11.0927 7.68339 10.7388 9.11147 10.7388H13.6615C14.9226 10.7388 16.4061 10.965 16.4061 12.3411V16.8746C16.4061 20.1573 18.9695 21.8184 21.6265 21.8184C24.3288 21.8184 26.8461 20.1573 26.8461 16.8746V5.80151H26.8465Z" fill="white"/>
<path fill-rule="evenodd" clip-rule="evenodd" d="M15.0001 1.45945e-05C18.0102 -0.00419321 20.9513 0.90157 23.4374 2.59847V16.9808C23.4374 17.9777 22.6221 18.7935 21.6267 18.7935C20.6301 18.7935 19.8155 17.9777 19.8155 16.9808V12.6712C19.8155 9.23078 18.0744 7.79962 15.8067 7.79962H8.42629C5.75437 7.79962 3.53784 9.50039 3.53784 12.1973C3.53784 13.5773 4.12899 15.5996 6.92476 16.1012C9.20206 16.5112 10.1009 16.3919 10.1009 17.6104C10.1009 18.7935 8.77552 18.7935 7.02591 18.7935H0.484761C0.161653 17.5549 -0.00134215 16.28 -0.000238574 15C-0.000238574 6.71886 6.71745 1.45945e-05 15.0001 1.45945e-05Z" fill="white"/>
</svg>
