<svg width="39" height="39" viewBox="0 0 39 39" fill="none" xmlns="http://www.w3.org/2000/svg">
<path d="M38.3999 19.2C38.3999 24.2922 36.377 29.1758 32.7763 32.7765C29.1756 36.3772 24.292 38.4 19.1999 38.4C14.1077 38.4 9.22413 36.3772 5.62343 32.7765C2.02273 29.1758 -0.00012207 24.2922 -0.00012207 19.2C-0.00012207 14.1078 2.02273 9.22425 5.62343 5.62355C9.22413 2.02285 14.1077 0 19.1999 0C24.292 0 29.1756 2.02285 32.7763 5.62355C36.377 9.22425 38.3999 14.1078 38.3999 19.2ZM19.8887 14.1744C18.0215 14.952 14.2871 16.56 8.69028 18.9984C7.78308 19.3584 7.30548 19.7136 7.26228 20.0592C7.19028 20.6424 7.92228 20.8728 8.91828 21.1872L9.33828 21.3192C10.3175 21.6384 11.6375 22.0104 12.3215 22.0248C12.9455 22.0392 13.6391 21.7848 14.4047 21.2568C19.6343 17.7264 22.3343 15.9432 22.5023 15.9048C22.6223 15.876 22.7903 15.8424 22.9007 15.9432C23.0135 16.0416 23.0015 16.2312 22.9895 16.2816C22.9175 16.5912 20.0447 19.26 18.5591 20.6424C18.0959 21.0744 17.7671 21.3792 17.6999 21.4488C17.5519 21.6 17.4015 21.7488 17.2487 21.8952C16.3367 22.7736 15.6551 23.4312 17.2847 24.5064C18.0695 25.0248 18.6983 25.4496 19.3247 25.8768C20.0063 26.3424 20.6879 26.8056 21.5711 27.3864C21.7943 27.5304 22.0103 27.6864 22.2191 27.8352C23.0135 28.4016 23.7311 28.9104 24.6119 28.8288C25.1255 28.7808 25.6559 28.3008 25.9247 26.8608C26.5607 23.46 27.8111 16.0944 28.0991 13.0584C28.1167 12.806 28.1062 12.5525 28.0679 12.3024C28.0453 12.1006 27.9476 11.9147 27.7943 11.7816C27.5759 11.6309 27.3156 11.5528 27.0503 11.5584C26.3303 11.5704 25.2191 11.9568 19.8887 14.1744Z" fill="white"/>
</svg>
