<svg width="29" height="29" viewBox="0 0 29 29" fill="none" xmlns="http://www.w3.org/2000/svg">
<path d="M28.7998 14.4C28.7998 18.2191 27.2826 21.8818 24.5821 24.5823C21.8816 27.2829 18.2189 28.8 14.3998 28.8C10.5806 28.8 6.91794 27.2829 4.21742 24.5823C1.51689 21.8818 -0.000244141 18.2191 -0.000244141 14.4C-0.000244141 10.5809 1.51689 6.91819 4.21742 4.21766C6.91794 1.51714 10.5806 0 14.3998 0C18.2189 0 21.8816 1.51714 24.5821 4.21766C27.2826 6.91819 28.7998 10.5809 28.7998 14.4ZM14.9164 10.6308C13.516 11.214 10.7152 12.42 6.51756 14.2488C5.83716 14.5188 5.47896 14.7852 5.44656 15.0444C5.39256 15.4818 5.94156 15.6546 6.68856 15.8904L7.00356 15.9894C7.73796 16.2288 8.72796 16.5078 9.24096 16.5186C9.70896 16.5294 10.2292 16.3386 10.8034 15.9426C14.7256 13.2948 16.7506 11.9574 16.8766 11.9286C16.9666 11.907 17.0926 11.8818 17.1754 11.9574C17.26 12.0312 17.251 12.1734 17.242 12.2112C17.188 12.4434 15.0334 14.445 13.9192 15.4818C13.5718 15.8058 13.3252 16.0344 13.2748 16.0866C13.1638 16.2 13.051 16.3116 12.9364 16.4214C12.2524 17.0802 11.7412 17.5734 12.9634 18.3798C13.552 18.7686 14.0236 19.0872 14.4934 19.4076C15.0046 19.7568 15.5158 20.1042 16.1782 20.5398C16.3456 20.6478 16.5076 20.7648 16.6642 20.8764C17.26 21.3012 17.7982 21.6828 18.4588 21.6216C18.844 21.5856 19.2418 21.2256 19.4434 20.1456C19.9204 17.595 20.8582 12.0708 21.0742 9.7938C21.0873 9.60452 21.0795 9.41435 21.0508 9.2268C21.0338 9.07546 20.9606 8.93603 20.8456 8.8362C20.6818 8.72314 20.4865 8.66457 20.2876 8.6688C19.7476 8.6778 18.9142 8.9676 14.9164 10.6308Z" fill="white"/>
</svg>
