<svg width="40" height="40" viewBox="0 0 40 40" fill="none" xmlns="http://www.w3.org/2000/svg">
<path d="M19.9999 0.800049C9.39593 0.800049 0.799927 9.39605 0.799927 20C0.799927 30.604 9.39593 39.2001 19.9999 39.2001C30.6039 39.2001 39.1999 30.604 39.1999 20C39.1999 9.39605 30.6039 0.800049 19.9999 0.800049ZM27.3839 22.462C27.3839 22.462 29.0819 24.1381 29.4999 24.916C29.5119 24.9321 29.5179 24.948 29.5219 24.956C29.6919 25.242 29.7319 25.464 29.6479 25.63C29.5079 25.906 29.0279 26.0421 28.8639 26.0541H25.8639C25.6559 26.0541 25.2199 26 24.6919 25.636C24.2859 25.352 23.8859 24.886 23.4959 24.432C22.9139 23.756 22.4099 23.1721 21.9019 23.1721C21.8374 23.1719 21.7733 23.1821 21.7119 23.202C21.3279 23.326 20.8359 23.8741 20.8359 25.334C20.8359 25.79 20.4759 26.052 20.2219 26.052H18.8479C18.3799 26.052 15.9419 25.8881 13.7819 23.6101C11.1379 20.82 8.75793 15.224 8.73793 15.172C8.58793 14.81 8.89793 14.616 9.23593 14.616H12.2659C12.6699 14.616 12.8019 14.862 12.8939 15.08C13.0019 15.334 13.3979 16.344 14.0479 17.48C15.1019 19.332 15.7479 20.084 16.2659 20.084C16.3631 20.0829 16.4585 20.0582 16.5439 20.012C17.2199 19.636 17.0939 17.226 17.0639 16.726C17.0639 16.632 17.0619 15.648 16.7159 15.176C16.4679 14.834 16.0459 14.704 15.7899 14.656C15.8935 14.5131 16.0301 14.3971 16.1879 14.318C16.6519 14.086 17.4879 14.052 18.3179 14.052H18.7799C19.6799 14.064 19.9119 14.122 20.2379 14.204C20.8979 14.362 20.9119 14.788 20.8539 16.246C20.8359 16.66 20.8179 17.128 20.8179 17.68C20.8179 17.8001 20.8119 17.928 20.8119 18.064C20.7919 18.806 20.7679 19.648 21.2919 19.994C21.3603 20.0369 21.4393 20.0598 21.5199 20.06C21.7019 20.06 22.2499 20.06 23.7339 17.514C24.1916 16.6946 24.5893 15.843 24.9239 14.966C24.9539 14.914 25.0419 14.754 25.1459 14.692C25.2227 14.6529 25.3078 14.633 25.3939 14.634H28.9559C29.3439 14.634 29.6099 14.692 29.6599 14.842C29.7479 15.08 29.6439 15.806 28.0179 18.008L27.2919 18.966C25.8179 20.898 25.8179 20.996 27.3839 22.462Z" fill="white"/>
</svg>
