<svg width="30" height="30" viewBox="0 0 30 30" fill="none" xmlns="http://www.w3.org/2000/svg">
<path d="M14.9999 0.599976C7.04685 0.599976 0.599854 7.04698 0.599854 15C0.599854 22.953 7.04685 29.4 14.9999 29.4C22.9529 29.4 29.3999 22.953 29.3999 15C29.3999 7.04698 22.9529 0.599976 14.9999 0.599976ZM20.5379 16.8465C20.5379 16.8465 21.8114 18.1035 22.1249 18.687C22.1339 18.699 22.1384 18.711 22.1414 18.717C22.2689 18.9315 22.2989 19.098 22.2359 19.2225C22.1309 19.4295 21.7709 19.5315 21.6479 19.5405H19.3979C19.2419 19.5405 18.9149 19.5 18.5189 19.227C18.2144 19.014 17.9144 18.6645 17.6219 18.324C17.1854 17.817 16.8074 17.379 16.4264 17.379C16.378 17.3789 16.3299 17.3865 16.2839 17.4015C15.9959 17.4945 15.6269 17.9055 15.6269 19.0005C15.6269 19.3425 15.3569 19.539 15.1664 19.539H14.1359C13.7849 19.539 11.9564 19.416 10.3364 17.7075C8.35335 15.615 6.56835 11.418 6.55335 11.379C6.44085 11.1075 6.67335 10.962 6.92685 10.962H9.19935C9.50235 10.962 9.60135 11.1465 9.67035 11.31C9.75136 11.5005 10.0484 12.258 10.5359 13.11C11.3264 14.499 11.8109 15.063 12.1994 15.063C12.2722 15.0621 12.3438 15.0436 12.4079 15.009C12.9149 14.727 12.8204 12.9195 12.7979 12.5445C12.7979 12.474 12.7964 11.736 12.5369 11.382C12.3509 11.1255 12.0344 11.028 11.8424 10.992C11.9201 10.8847 12.0225 10.7978 12.1409 10.7385C12.4889 10.5645 13.1159 10.539 13.7384 10.539H14.0849C14.7599 10.548 14.9339 10.5915 15.1784 10.653C15.6734 10.7715 15.6839 11.091 15.6404 12.1845C15.6269 12.495 15.6134 12.846 15.6134 13.26C15.6134 13.35 15.6089 13.446 15.6089 13.548C15.5939 14.1045 15.5759 14.736 15.9689 14.9955C16.0201 15.0276 16.0794 15.0448 16.1399 15.045C16.2764 15.045 16.6874 15.045 17.8004 13.1355C18.1436 12.5209 18.4419 11.8822 18.6929 11.2245C18.7154 11.1855 18.7814 11.0655 18.8594 11.019C18.9169 10.9896 18.9807 10.9747 19.0454 10.9755H21.7169C22.0079 10.9755 22.2074 11.019 22.2449 11.1315C22.3109 11.31 22.2329 11.8545 21.0134 13.506L20.4689 14.2245C19.3634 15.6735 19.3634 15.747 20.5379 16.8465Z" fill="white"/>
</svg>
